<svg width="145" height="40" viewBox="0 0 145 40" fill="none" xmlns="http://www.w3.org/2000/svg">
<rect width="40" height="40" rx="8" fill="#FF4D00"/>
<path d="M58.3 19.396C58.8227 19.396 59.2427 19.396 59.56 19.396C59.8773 19.396 60.2227 19.396 60.596 19.396C61.268 19.396 61.8653 19.256 62.388 18.976C62.9107 18.6773 63.312 18.276 63.592 17.772C63.8907 17.2493 64.04 16.6427 64.04 15.952C64.04 15.2427 63.8813 14.636 63.564 14.132C63.2653 13.6093 62.836 13.208 62.276 12.928C61.716 12.6293 61.044 12.48 60.26 12.48C59.7933 12.48 59.3733 12.48 59 12.48C58.6453 12.48 58.2347 12.48 57.768 12.48C57.5067 12.48 57.3013 12.4893 57.152 12.508C57.0213 12.5267 56.928 12.5733 56.872 12.648C56.816 12.7227 56.7787 12.8347 56.76 12.984C56.76 13.1333 56.76 13.3387 56.76 13.6C56.76 14.3093 56.76 15.0747 56.76 15.896C56.76 16.6987 56.76 17.548 56.76 18.444C56.76 19.3213 56.76 20.236 56.76 21.188C56.76 22.1213 56.76 23.064 56.76 24.016C56.76 24.4827 56.76 24.9213 56.76 25.332C56.76 25.7427 56.76 26.1533 56.76 26.564C56.76 26.9747 56.76 27.4133 56.76 27.88C56.76 28.3467 56.6293 28.7013 56.368 28.944C56.1253 29.1867 55.836 29.308 55.5 29.308C55.164 29.308 54.8653 29.196 54.604 28.972C54.3613 28.7293 54.24 28.3653 54.24 27.88C54.24 27.4133 54.24 26.956 54.24 26.508C54.24 26.06 54.24 25.6307 54.24 25.22C54.24 24.8093 54.24 24.408 54.24 24.016C54.24 23.3813 54.24 22.6813 54.24 21.916C54.24 21.132 54.24 20.3013 54.24 19.424C54.24 18.5467 54.24 17.6227 54.24 16.652C54.24 15.6813 54.24 14.664 54.24 13.6C54.24 12.9653 54.3053 12.424 54.436 11.976C54.5667 11.5093 54.7627 11.1267 55.024 10.828C55.304 10.5293 55.668 10.3147 56.116 10.184C56.5827 10.0347 57.1333 9.96 57.768 9.96C58.0293 9.96 58.3 9.96 58.58 9.96C58.86 9.96 59.14 9.96 59.42 9.96C59.7187 9.96 59.9987 9.96 60.26 9.96C61.212 9.96 62.0707 10.1093 62.836 10.408C63.62 10.7067 64.2827 11.1267 64.824 11.668C65.384 12.2093 65.8133 12.844 66.112 13.572C66.4107 14.3 66.56 15.0933 66.56 15.952C66.56 17.1093 66.2987 18.136 65.776 19.032C65.272 19.928 64.5627 20.6373 63.648 21.16C62.752 21.664 61.7347 21.916 60.596 21.916C60.1853 21.916 59.8307 21.916 59.532 21.916C59.252 21.916 58.8413 21.916 58.3 21.916C57.8147 21.916 57.4507 21.7947 57.208 21.552C56.984 21.2907 56.872 20.992 56.872 20.656C56.872 20.32 56.984 20.0307 57.208 19.788C57.4507 19.5267 57.8147 19.396 58.3 19.396ZM73.0851 29.028C72.3011 28.748 71.6104 28.4027 71.0131 27.992C70.4344 27.5627 69.9211 27.012 69.4731 26.34C69.0811 25.7613 68.7731 25.108 68.5491 24.38C68.3251 23.652 68.2131 22.868 68.2131 22.028C68.2131 20.628 68.5118 19.3867 69.1091 18.304C69.7251 17.2027 70.5558 16.344 71.6011 15.728C72.6651 15.0933 73.8598 14.776 75.1851 14.776C76.5291 14.776 77.7238 15.0933 78.7691 15.728C79.8331 16.344 80.6638 17.2027 81.2611 18.304C81.8771 19.3867 82.1851 20.628 82.1851 22.028C82.1851 22.8493 82.0731 23.624 81.8491 24.352C81.6438 25.0613 81.3358 25.7147 80.9251 26.312C80.4771 27.0027 79.9638 27.5533 79.3851 27.964C78.8064 28.3747 78.0971 28.7293 77.2571 29.028C76.8278 29.1773 76.4544 29.168 76.1371 29C75.8384 28.832 75.6331 28.5893 75.5211 28.272C75.4091 27.9547 75.4278 27.6467 75.5771 27.348C75.7264 27.0307 76.0251 26.788 76.4731 26.62C77.0331 26.4333 77.4904 26.2187 77.8451 25.976C78.1998 25.7147 78.5358 25.36 78.8531 24.912C79.1144 24.52 79.3104 24.0813 79.4411 23.596C79.5904 23.1107 79.6651 22.588 79.6651 22.028C79.6651 21.1133 79.4691 20.3013 79.0771 19.592C78.7038 18.864 78.1811 18.304 77.5091 17.912C76.8371 17.5013 76.0624 17.296 75.1851 17.296C74.3078 17.296 73.5331 17.5013 72.8611 17.912C72.1891 18.304 71.6664 18.864 71.2931 19.592C70.9198 20.3013 70.7331 21.1133 70.7331 22.028C70.7331 22.588 70.7984 23.12 70.9291 23.624C71.0784 24.1093 71.2838 24.548 71.5451 24.94C71.7504 25.2387 71.9651 25.4907 72.1891 25.696C72.4318 25.9013 72.6931 26.0787 72.9731 26.228C73.2531 26.3773 73.5611 26.508 73.8971 26.62C74.3451 26.788 74.6438 27.0307 74.7931 27.348C74.9424 27.6467 74.9611 27.9547 74.8491 28.272C74.7371 28.5893 74.5224 28.832 74.2051 29C73.9064 29.168 73.5331 29.1773 73.0851 29.028ZM87.3972 16.176C87.3972 16.8293 87.3972 17.5387 87.3972 18.304C87.3972 19.0693 87.3972 19.8627 87.3972 20.684C87.3972 21.5053 87.3972 22.3453 87.3972 23.204C87.3972 23.988 87.5093 24.6507 87.7333 25.192C87.9759 25.7147 88.3306 26.116 88.7973 26.396C89.2639 26.6573 89.8333 26.788 90.5053 26.788C91.1213 26.788 91.6906 26.6853 92.2133 26.48C92.7546 26.256 93.2213 25.9573 93.6133 25.584C94.0053 25.2107 94.3039 24.7813 94.5093 24.296C94.7333 23.8107 94.8453 23.288 94.8453 22.728C94.8453 22.504 94.8453 22.1307 94.8453 21.608C94.8453 21.0853 94.8453 20.4973 94.8453 19.844C94.8453 19.1907 94.8453 18.5373 94.8453 17.884C94.8453 17.2307 94.8453 16.6613 94.8453 16.176C94.8453 15.8027 94.9293 15.504 95.0973 15.28C95.2653 15.056 95.4706 14.9067 95.7133 14.832C95.9746 14.7573 96.2266 14.7573 96.4693 14.832C96.7306 14.9067 96.9453 15.056 97.1133 15.28C97.2813 15.504 97.3653 15.8027 97.3653 16.176C97.3653 16.68 97.3653 17.324 97.3653 18.108C97.3653 18.8733 97.3653 19.6853 97.3653 20.544C97.3653 21.4027 97.3653 22.2053 97.3653 22.952C97.3653 23.6987 97.3653 24.2867 97.3653 24.716C97.3653 25.164 97.3653 25.556 97.3653 25.892C97.3653 26.228 97.3653 26.5547 97.3653 26.872C97.3653 27.1707 97.3653 27.5253 97.3653 27.936C97.3653 28.4027 97.2346 28.7573 96.9733 29C96.7306 29.224 96.4413 29.336 96.1053 29.336C95.7693 29.336 95.4706 29.224 95.2093 29C94.9666 28.7573 94.8453 28.4027 94.8453 27.936C94.8453 27.5067 94.8453 27.1053 94.8453 26.732C94.8453 26.3587 94.8453 26.004 94.8453 25.668C94.8453 25.332 94.8453 25.0147 94.8453 24.716C94.8453 24.0813 94.8453 23.3813 94.8453 22.616C94.8453 21.832 94.8453 21.0387 94.8453 20.236C94.8453 19.4333 94.8453 18.6773 94.8453 17.968C94.8453 17.2587 94.8453 16.6613 94.8453 16.176C94.8453 15.8027 94.9293 15.504 95.0973 15.28C95.2653 15.056 95.4706 14.9067 95.7133 14.832C95.9746 14.7573 96.2266 14.7573 96.4693 14.832C96.7306 14.9067 96.9453 15.056 97.1133 15.28C97.2813 15.504 97.3653 15.8027 97.3653 16.176C97.3653 16.68 97.3653 17.24 97.3653 17.856C97.3653 18.472 97.3653 19.088 97.3653 19.704C97.3653 20.32 97.3653 20.8987 97.3653 21.44C97.3653 21.9627 97.3653 22.392 97.3653 22.728C97.3653 23.6053 97.1879 24.4453 96.8333 25.248C96.4973 26.032 96.0213 26.732 95.4053 27.348C94.7893 27.9453 94.0613 28.4213 93.2213 28.776C92.3999 29.1307 91.4946 29.308 90.5053 29.308C89.4039 29.308 88.4239 29.0747 87.5653 28.608C86.7253 28.1227 86.0626 27.4227 85.5773 26.508C85.1106 25.5933 84.8773 24.492 84.8773 23.204C84.8773 22.4947 84.8773 21.72 84.8773 20.88C84.8773 20.04 84.8773 19.2093 84.8773 18.388C84.8773 17.548 84.8773 16.8107 84.8773 16.176C84.8773 15.7093 84.9986 15.364 85.2413 15.14C85.5026 14.8973 85.8013 14.776 86.1373 14.776C86.4733 14.776 86.7626 14.8973 87.0053 15.14C87.2666 15.364 87.3972 15.7093 87.3972 16.176ZM101.043 32.5C101.043 32.1267 101.043 31.716 101.043 31.268C101.043 30.82 101.043 30.344 101.043 29.84C101.043 29.3547 101.043 28.86 101.043 28.356C101.043 27.8707 101.043 27.3107 101.043 26.676C101.043 26.0413 101.043 25.332 101.043 24.548C101.043 23.7453 101.043 22.896 101.043 22C101.043 20.5813 101.333 19.3307 101.911 18.248C102.49 17.1653 103.283 16.316 104.291 15.7C105.299 15.084 106.447 14.776 107.735 14.776C109.005 14.776 110.143 15.0933 111.151 15.728C112.178 16.344 112.99 17.2027 113.587 18.304C114.185 19.3867 114.483 20.6373 114.483 22.056C114.483 23.12 114.306 24.1 113.951 24.996C113.615 25.8733 113.139 26.6387 112.523 27.292C111.907 27.9267 111.189 28.4213 110.367 28.776C109.565 29.1307 108.697 29.308 107.763 29.308C106.811 29.308 105.925 29.1307 105.103 28.776C104.282 28.4027 103.563 27.8987 102.947 27.264C102.35 26.6107 101.883 25.8453 101.547 24.968C101.211 24.0907 101.043 23.1387 101.043 22.112C101.043 21.496 101.043 20.8333 101.043 20.124C101.043 19.396 101.043 18.7053 101.043 18.052C101.043 17.38 101.043 16.82 101.043 16.372C101.043 15.8867 101.165 15.532 101.407 15.308C101.669 15.0653 101.967 14.944 102.303 14.944C102.639 14.944 102.929 15.0653 103.171 15.308C103.433 15.5507 103.563 15.9053 103.563 16.372C103.563 17.044 103.563 17.6413 103.563 18.164C103.563 18.6867 103.563 19.2467 103.563 19.844C103.563 20.4413 103.563 21.1973 103.563 22.112C103.563 22.784 103.666 23.4 103.871 23.96C104.077 24.52 104.366 25.0147 104.739 25.444C105.113 25.8733 105.551 26.2093 106.055 26.452C106.578 26.676 107.147 26.788 107.763 26.788C108.361 26.788 108.911 26.676 109.415 26.452C109.938 26.2093 110.386 25.8827 110.759 25.472C111.133 25.0427 111.422 24.5387 111.627 23.96C111.851 23.3813 111.963 22.7467 111.963 22.056C111.963 21.3653 111.861 20.7307 111.655 20.152C111.45 19.5733 111.161 19.0693 110.787 18.64C110.414 18.2107 109.966 17.884 109.443 17.66C108.921 17.4173 108.351 17.296 107.735 17.296C106.895 17.296 106.158 17.5013 105.523 17.912C104.907 18.304 104.422 18.8547 104.067 19.564C103.731 20.2733 103.563 21.0853 103.563 22C103.563 22.616 103.563 23.2693 103.563 23.96C103.563 24.632 103.563 25.332 103.563 26.06C103.563 26.7693 103.563 27.488 103.563 28.216C103.563 28.8507 103.563 29.4013 103.563 29.868C103.563 30.3347 103.563 30.7733 103.563 31.184C103.563 31.5947 103.563 32.0333 103.563 32.5C103.563 32.9667 103.433 33.3213 103.171 33.564C102.929 33.8067 102.639 33.928 102.303 33.928C101.967 33.928 101.669 33.8067 101.407 33.564C101.165 33.3213 101.043 32.9667 101.043 32.5ZM120.307 20.768C120.848 20.768 121.427 20.768 122.043 20.768C122.659 20.768 123.284 20.768 123.919 20.768C124.572 20.768 125.207 20.768 125.823 20.768C126.047 20.768 126.243 20.7773 126.411 20.796C126.598 20.796 126.738 20.7867 126.831 20.768C126.943 20.7307 127.018 20.6747 127.055 20.6C127.111 20.5253 127.12 20.3947 127.083 20.208C126.952 19.6107 126.719 19.0973 126.383 18.668C126.066 18.22 125.655 17.884 125.151 17.66C124.647 17.4173 124.078 17.296 123.443 17.296C122.603 17.296 121.856 17.492 121.203 17.884C120.568 18.276 120.064 18.836 119.691 19.564C119.336 20.2733 119.159 21.104 119.159 22.056C119.159 23.064 119.355 23.9227 119.747 24.632C120.139 25.3413 120.671 25.8827 121.343 26.256C122.034 26.6107 122.818 26.788 123.695 26.788C124.087 26.788 124.498 26.7507 124.927 26.676C125.356 26.5827 125.786 26.452 126.215 26.284C126.663 26.116 127.111 25.9107 127.559 25.668C127.97 25.4253 128.334 25.36 128.651 25.472C128.987 25.584 129.239 25.7893 129.407 26.088C129.575 26.368 129.612 26.676 129.519 27.012C129.444 27.348 129.202 27.628 128.791 27.852C128.212 28.188 127.634 28.468 127.055 28.692C126.476 28.8973 125.898 29.0467 125.319 29.14C124.759 29.252 124.218 29.308 123.695 29.308C122.388 29.308 121.203 29.0187 120.139 28.44C119.075 27.8613 118.226 27.0307 117.591 25.948C116.956 24.8653 116.639 23.568 116.639 22.056C116.639 20.6 116.938 19.3307 117.535 18.248C118.132 17.1467 118.944 16.2973 119.971 15.7C120.998 15.084 122.155 14.776 123.443 14.776C124.47 14.776 125.412 14.9813 126.271 15.392C127.13 15.8027 127.839 16.3813 128.399 17.128C128.978 17.856 129.36 18.7333 129.547 19.76C129.659 20.3387 129.678 20.852 129.603 21.3C129.528 21.748 129.342 22.1213 129.043 22.42C128.744 22.7 128.324 22.9147 127.783 23.064C127.26 23.2133 126.607 23.288 125.823 23.288C125.226 23.288 124.675 23.288 124.171 23.288C123.667 23.288 123.191 23.288 122.743 23.288C122.314 23.288 121.894 23.288 121.483 23.288C121.091 23.288 120.699 23.288 120.307 23.288C119.84 23.288 119.486 23.1667 119.243 22.924C119 22.6627 118.879 22.364 118.879 22.028C118.879 21.692 119 21.4027 119.243 21.16C119.486 20.8987 119.84 20.768 120.307 20.768ZM134.029 31.968C134.123 31.7627 134.216 31.548 134.309 31.324C134.421 31.1 134.524 30.876 134.617 30.652C134.729 30.428 134.832 30.204 134.925 29.98C135.037 29.7747 135.14 29.56 135.233 29.336C135.308 29.1493 135.383 28.972 135.457 28.804C135.532 28.636 135.607 28.4773 135.681 28.328C135.756 28.16 135.821 28.0013 135.877 27.852C136.008 27.572 136.055 27.292 136.017 27.012C135.98 26.7133 135.887 26.396 135.737 26.06C135.588 25.724 135.401 25.3507 135.177 24.94C134.953 24.5293 134.72 24.072 134.477 23.568C134.291 23.176 134.067 22.7093 133.805 22.168C133.544 21.608 133.264 21.02 132.965 20.404C132.685 19.7693 132.396 19.1347 132.097 18.5C131.799 17.8653 131.519 17.268 131.257 16.708C131.071 16.2787 131.043 15.9053 131.173 15.588C131.304 15.2707 131.519 15.0467 131.817 14.916C132.116 14.7667 132.424 14.748 132.741 14.86C133.077 14.9533 133.348 15.2147 133.553 15.644C133.815 16.2227 134.085 16.8293 134.365 17.464C134.664 18.08 134.953 18.696 135.233 19.312C135.532 19.928 135.803 20.5067 136.045 21.048C136.307 21.5893 136.531 22.056 136.717 22.448C137.165 23.3627 137.529 24.128 137.809 24.744C138.108 25.3413 138.313 25.864 138.425 26.312C138.556 26.7413 138.593 27.152 138.537 27.544C138.5 27.936 138.369 28.384 138.145 28.888C138.089 29.0187 138.015 29.168 137.921 29.336C137.847 29.504 137.772 29.6813 137.697 29.868C137.623 30.0547 137.548 30.232 137.473 30.4C137.38 30.624 137.287 30.848 137.193 31.072C137.1 31.296 136.997 31.52 136.885 31.744C136.792 31.968 136.699 32.1827 136.605 32.388C136.512 32.612 136.419 32.8267 136.325 33.032C136.157 33.368 135.943 33.6013 135.681 33.732C135.439 33.8813 135.187 33.9373 134.925 33.9C134.683 33.8627 134.459 33.7507 134.253 33.564C134.067 33.396 133.945 33.172 133.889 32.892C133.833 32.612 133.88 32.304 134.029 31.968ZM143.661 16.68C143.512 17.016 143.353 17.3613 143.185 17.716C143.036 18.0707 142.877 18.4253 142.709 18.78C142.56 19.1347 142.411 19.4707 142.261 19.788C142.131 20.1053 142.009 20.3853 141.897 20.628C141.505 21.524 141.067 22.4947 140.581 23.54C140.115 24.5853 139.667 25.584 139.237 26.536C138.808 27.488 138.453 28.272 138.173 28.888C138.099 29.056 138.024 29.224 137.949 29.392C137.875 29.5787 137.791 29.756 137.697 29.924C137.623 30.092 137.548 30.2693 137.473 30.456C137.38 30.68 137.287 30.8947 137.193 31.1C137.1 31.324 137.007 31.5387 136.913 31.744C136.82 31.968 136.717 32.1827 136.605 32.388C136.512 32.612 136.419 32.8267 136.325 33.032C136.157 33.368 135.943 33.6013 135.681 33.732C135.439 33.8813 135.187 33.9373 134.925 33.9C134.683 33.8627 134.459 33.7507 134.253 33.564C134.067 33.396 133.945 33.172 133.889 32.892C133.833 32.612 133.88 32.304 134.029 31.968C134.123 31.7627 134.216 31.548 134.309 31.324C134.421 31.1 134.533 30.876 134.645 30.652C134.757 30.428 134.86 30.204 134.953 29.98C135.065 29.756 135.168 29.5413 135.261 29.336C135.336 29.1493 135.401 28.9813 135.457 28.832C135.532 28.6827 135.597 28.5333 135.653 28.384C135.728 28.2347 135.803 28.0667 135.877 27.88C136.064 27.4507 136.307 26.9187 136.605 26.284C136.904 25.6307 137.221 24.9213 137.557 24.156C137.912 23.3907 138.267 22.616 138.621 21.832C138.976 21.048 139.303 20.3107 139.601 19.62C139.751 19.3027 139.919 18.92 140.105 18.472C140.311 18.024 140.525 17.5573 140.749 17.072C140.973 16.568 141.179 16.1013 141.365 15.672C141.552 15.2427 141.804 14.972 142.121 14.86C142.457 14.748 142.775 14.7573 143.073 14.888C143.391 15.0187 143.615 15.2427 143.745 15.56C143.895 15.8773 143.867 16.2507 143.661 16.68Z" fill="black"/>
<path d="M25.25 16.3972V15.875C25.25 13.5238 21.7034 11.75 17 11.75C12.2966 11.75 8.75 13.5238 8.75 15.875V19.625C8.75 21.5834 11.2109 23.1397 14.75 23.6056V24.125C14.75 26.4762 18.2966 28.25 23 28.25C27.7034 28.25 31.25 26.4762 31.25 24.125V20.375C31.25 18.4344 28.8669 16.8762 25.25 16.3972ZM29.75 20.375C29.75 21.6144 26.8634 23 23 23C22.6503 23 22.3034 22.9878 21.9612 22.9653C23.9834 22.2284 25.25 21.0312 25.25 19.625V17.9131C28.0503 18.3303 29.75 19.4628 29.75 20.375ZM14.75 22.0859V19.8556C15.496 19.9528 16.2477 20.0011 17 20C17.7523 20.0011 18.504 19.9528 19.25 19.8556V22.0859C18.5051 22.196 17.753 22.2508 17 22.25C16.247 22.2508 15.4949 22.196 14.75 22.0859ZM23.75 18.3059V19.625C23.75 20.4116 22.5866 21.2562 20.75 21.7691V19.5781C21.9603 19.2847 22.985 18.8478 23.75 18.3059ZM17 13.25C20.8634 13.25 23.75 14.6356 23.75 15.875C23.75 17.1144 20.8634 18.5 17 18.5C13.1366 18.5 10.25 17.1144 10.25 15.875C10.25 14.6356 13.1366 13.25 17 13.25ZM10.25 19.625V18.3059C11.015 18.8478 12.0397 19.2847 13.25 19.5781V21.7691C11.4134 21.2562 10.25 20.4116 10.25 19.625ZM16.25 24.125V23.7341C16.4966 23.7434 16.7459 23.75 17 23.75C17.3638 23.75 17.7191 23.7378 18.0678 23.7172C18.4552 23.8559 18.8499 23.9736 19.25 24.0697V26.2691C17.4134 25.7562 16.25 24.9116 16.25 24.125ZM20.75 26.5859V24.35C21.4958 24.4503 22.2475 24.5004 23 24.5C23.7523 24.5011 24.504 24.4528 25.25 24.3556V26.5859C23.758 26.8047 22.242 26.8047 20.75 26.5859ZM26.75 26.2691V24.0781C27.9603 23.7847 28.985 23.3478 29.75 22.8059V24.125C29.75 24.9116 28.5866 25.7562 26.75 26.2691Z" fill="white"/>
</svg>
